#!OML:ASF E:\inclinewalkrobotboard\Project 1\Capture day 1\Session 1\subject1.ASF
:FULLY-SPECIFIED
:DEGREES
48
root 7.0322 16.6277 36.4889 -169.71 3.22501 179.305
lowerback -8.91848 1.13695 -7.04132
upperback 1.77848 2.21808 1.63331
thorax 6.57314 0.780003 6.02239
lowerneck -6.71452 0.777653 -3.37627
upperneck 32.8046 -4.49488 6.68856
head 12.0734 -3.00658 2.29583
rclavicle 7.8023e-015 -1.74931e-014
rhumerus -49.906 -33.3504 -63.997
rradius 26.3061
rwrist 15.4739
rhand -15.5533 -37.7137
rfingers 7.12502
rthumb 10.6311 -67.4247
lclavicle 7.8023e-015 -1.74931e-014
lhumerus -28.6578 8.02603 87.3209
lradius 19.9278
lwrist -28.9707
lhand -25.2154 -19.2215
lfingers 7.12502
lthumb 1.30351 10.7543
rfemur -6.59551 2.08486 19.5291
rtibia 8.76332
rfoot -14.1518 -1.46856
rtoes -26.2397
lfemur -7.03727 -7.77277 -22.0764
ltibia 9.90895
lfoot -15.4864 4.43964
ltoes -65.2676
49
root 7.03063 16.6287 36.4906 -169.7 3.24166 179.365
lowerback -8.92452 1.10415 -6.98624
upperback 1.78744 2.1663 1.6745
thorax 6.59437 0.754724 6.02889
lowerneck -6.7432 0.834985 -3.4262
upperneck 32.8949 -4.4382 6.71506
head 12.1136 -2.99003 2.32142
rclavicle 2.48481e-015 5.76476e-015
rhumerus -49.8088 -33.1711 -64.1497
rradius 26.3745
rwrist 15.6793
rhand -15.5388 -37.6324
rfingers 7.12502
rthumb 10.6451 -67.3428
lclavicle 2.48481e-015 5.76476e-015
lhumerus -28.6976 8.16973 87.3187
lradius 19.9579
lwrist -28.9663
lhand -25.2023 -19.2409
lfingers 7.12502
lthumb 1.31615 10.7348
rfemur -6.59858 2.08446 19.5995
rtibia 8.76952
rfoot -14.1721 -1.40082
rtoes -26.1571
lfemur -7.04208 -7.77012 -22.0104
ltibia 9.92724
lfoot -15.6357 4.33389
ltoes -65.0344
50
root 7.029 16.628 36.4908 -169.677 3.25468 179.342
lowerback -8.95609 1.07122 -6.99345
upperback 1.78883 2.12512 1.67983
thorax 6.61995 0.73285 6.03466
lowerneck -6.84965 0.899408 -3.47559
upperneck 33.0957 -4.4009 6.74916
head 12.2177 -2.98448 2.34724
rclavicle 1.04362e-014 1.41137e-014
rhumerus -49.7349 -33.0631 -64.2608
rradius 26.3143
rwrist 15.6964
rhand -15.5737 -37.9621
rfingers 7.12502
rthumb 10.6114 -67.6741
lclavicle 1.04362e-014 1.41137e-014
lhumerus -28.7167 8.49378 87.2373
lradius 19.874
lwrist -29.3475
lhand -25.4194 -19.2958
lfingers 7.12502
lthumb 1.10654 10.6811
rfemur -6.60244 2.03679 19.565
rtibia 8.74276
rfoot -14.189 -1.33772
rtoes -26.5392
lfemur -7.05123 -7.74629 -22.0519
ltibia 9.90965
lfoot -15.6891 4.39123
ltoes -65.2401
51
root 7.02806 16.627 36.4905 -169.668 3.28523 179.309
lowerback -8.98831 1.07052 -7.00182
upperback 1.80361 2.12864 1.66718
thorax 6.65393 0.732464 6.02813
lowerneck -6.93796 0.917792 -3.56915
upperneck 33.3208 -4.46604 6.85033
head 12.3384 -3.02708 2.3939
rclavicle -1.35174e-014 -8.74653e-015
rhumerus -49.736 -33.0969 -64.2504
rradius 26.2227
rwrist 15.7229
rhand -16.0893 -38.0876
rfingers 7.12502
rthumb 10.114 -67.8245
lclavicle -1.35174e-014 -8.74653e-015
lhumerus -28.6617 8.86402 87.1163
lradius 19.6566
lwrist -29.8583
lhand -25.6595 -19.3378
lfingers 7.12502
lthumb 0.874568 10.6402
rfemur -6.60678 2.01983 19.5169
rtibia 8.7173
rfoot -14.197 -1.30775
rtoes -26.7479
lfemur -7.04602 -7.70258 -22.1041
ltibia 9.88758
lfoot -15.611 4.48088
ltoes -65.4862
52
root 7.02766 16.6272 36.491 -169.692 3.30356 179.374
lowerback -8.98584 1.09858 -6.91318
upperback 1.82955 2.15623 1.67287
thorax 6.67838 0.747646 5.98806
lowerneck -6.97368 0.907527 -3.62058
upperneck 33.5408 -4.59173 6.94257
head 12.4507 -3.09626 2.42204
rclavicle 7.95139e-015 -1.78906e-015
rhumerus -49.795 -33.1873 -64.1849
rradius 26.2029
rwrist 15.7936
rhand -16.2952 -38.1488
rfingers 7.12502
rthumb 9.91532 -67.8953
lclavicle 7.95139e-015 -1.78906e-015
lhumerus -28.6196 9.12795 86.9997
lradius 19.4505
lwrist -30.2508
lhand -25.7897 -19.2873
lfingers 7.12502
lthumb 0.74883 10.6911
rfemur -6.58711 2.05749 19.5913
rtibia 8.69841
rfoot -14.1796 -1.31938
rtoes -26.4948
lfemur -7.02145 -7.70581 -22.0341
ltibia 9.89916
lfoot -15.5496 4.489
ltoes -65.4372
53
root 7.02657 16.6268 36.4891 -169.742 3.33843 179.321
lowerback -9.00737 1.1065 -6.95612
upperback 1.85919 2.17496 1.65853
thorax 6.71894 0.752641 6.00146
lowerneck -6.97846 0.924548 -3.64409
upperneck 33.7515 -4.67246 7.0051
head 12.5487 -3.14645 2.43951
rclavicle 1.05356e-014 4.77083e-015
rhumerus -49.9061 -33.2564 -64.0759
rradius 26.2344
rwrist 15.867
rhand -15.6828 -38.2989
rfingers 7.12502
rthumb 10.5062 -68.0163
lclavicle 1.05356e-014 4.77083e-015
lhumerus -28.6741 9.35319 86.8928
lradius 19.3364
lwrist -30.505
lhand -25.8223 -19.2278
lfingers 7.12502
lthumb 0.717377 10.7508
rfemur -6.51208 2.0302 19.5218
rtibia 8.65241
rfoot -14.116 -1.29422
rtoes -26.2706
lfemur -6.93383 -7.76809 -22.1263
ltibia 9.86207
lfoot -15.5514 4.45492
ltoes -65.1893
